<svg xmlns="http://www.w3.org/2000/svg" viewBox="0 0 64 64" width="64" height="64">
  <path fill="#374151" d="M32 18c-1.1 0-2 .9-2 2v4c0 1.1.9 2 2 2s2-.9 2-2v-4c0-1.1-.9-2-2-2zm0 20c-1.1 0-2 .9-2 2v4c0 1.1.9 2 2 2s2-.9 2-2v-4c0-1.1-.9-2-2-2zm12-12h-4c-1.1 0-2 .9-2 2s.9 2 2 2h4c1.1 0 2-.9 2-2s-.9-2-2-2zm-20 0h-4c-1.1 0-2 .9-2 2s.9 2 2 2h4c1.1 0 2-.9 2-2s-.9-2-2-2zm15.07-8.93c-.78-.78-2.05-.78-2.83 0l-2.83 2.83c-.78.78-.78 2.05 0 2.83.39.39.9.59 1.41.59s1.02-.2 1.41-.59l2.83-2.83c.79-.78.79-2.04.01-2.83zm-14.14 14.14c-.78-.78-2.05-.78-2.83 0l-2.83 2.83c-.78.78-.78 2.05 0 2.83.39.39.9.59 1.41.59s1.02-.2 1.41-.59l2.83-2.83c.79-.78.79-2.04.01-2.83zm14.14 0c-.78-.78-2.05-.78-2.83 0-.78.78-.78 2.05 0 2.83l2.83 2.83c.39.39.9.59 1.41.59s1.02-.2 1.41-.59c.78-.78.78-2.05 0-2.83l-2.82-2.83zm-14.14-14.14c-.78-.78-2.05-.78-2.83 0-.78.78-.78 2.05 0 2.83l2.83 2.83c.39.39.9.59 1.41.59s1.02-.2 1.41-.59c.78-.78.78-2.05 0-2.83l-2.82-2.83zM32 28c-2.21 0-4 1.79-4 4s1.79 4 4 4 4-1.79 4-4-1.79-4-4-4z"/>
</svg>
